<?xml version="1.0" encoding="UTF-8"?>
<svg width="36px" height="36px" viewBox="0 0 36 36" version="1.1" xmlns="http://www.w3.org/2000/svg" xmlns:xlink="http://www.w3.org/1999/xlink">
    <!-- Generator: Sketch 47.1 (45422) - http://www.bohemiancoding.com/sketch -->
    <title>anger</title>
    <desc>Created with Sketch.</desc>
    <defs></defs>
    <g id="Page-1" stroke="none" stroke-width="1" fill="none" fill-rule="evenodd">
        <g id="Artboard-Copy" transform="translate(-379.000000, -80.000000)" fill="#999999">
            <path d="M397.000389,80 C406.925707,80 415,88.0742935 415,97.9988324 C415,107.92415 406.925707,115.999222 397.000389,115.999222 C387.075072,115.999222 379,107.92415 379,97.9988324 C379,88.0742935 387.075072,80 397.000389,80 Z M397.000389,114.236156 C405.952712,114.236156 413.236156,106.952712 413.236156,97.9988324 C413.236156,89.0465091 405.952712,81.7630651 397.000389,81.7630651 C388.047288,81.7630651 380.763065,89.0465091 380.763065,97.9988324 C380.763065,106.952712 388.047288,114.236156 397.000389,114.236156 Z M397.000389,99.3438993 C401.933858,99.3438993 405.947264,103.358083 405.947264,108.290774 C405.947264,108.778828 405.553396,109.172696 405.06612,109.172696 C404.578845,109.172696 404.184199,108.778828 404.184199,108.290774 C404.184199,104.330299 400.961642,101.106964 397.000389,101.106964 C393.039136,101.106964 389.81658,104.330299 389.81658,108.290774 C389.81658,108.778828 389.421933,109.172696 388.934658,109.172696 C388.447383,109.172696 388.052736,108.778828 388.052736,108.290774 C388.052736,103.358083 392.06692,99.3438993 397.000389,99.3438993 Z M390.066445,96.790763 C389.003935,96.790763 388.142252,95.9290795 388.142252,94.8665701 C388.142252,93.8040606 389.003935,92.9423771 390.066445,92.9423771 C391.128954,92.9423771 391.989859,93.8040606 391.989859,94.8665701 C391.989859,95.9290795 391.128954,96.790763 390.066445,96.790763 Z M402.010141,94.8665701 C402.010141,93.8040606 402.871824,92.9423771 403.934334,92.9423771 C404.996843,92.9423771 405.857748,93.8040606 405.857748,94.8665701 C405.857748,95.9290795 404.996843,96.790763 403.934334,96.790763 C402.871824,96.790763 402.010141,95.9290795 402.010141,94.8665701 Z M399.654717,93.4413285 C399.428982,93.4413285 399.203248,93.3549266 399.031222,93.1829013 C398.687172,92.8388506 398.687172,92.2807412 399.031222,91.9359121 L403.377781,87.5909101 C403.721832,87.2468594 404.279941,87.2468594 404.623992,87.5909101 C404.968821,87.9349608 404.968821,88.4930701 404.623992,88.8378992 L400.278211,93.1829013 C400.105408,93.3549266 399.880451,93.4413285 399.654717,93.4413285 Z M393.721789,93.1829013 L389.376008,88.8378992 C389.031957,88.4930701 389.031957,87.9349608 389.376008,87.5909101 C389.720837,87.2468594 390.278947,87.2468594 390.622997,87.5909101 L394.968778,91.9359121 C395.312828,92.2807412 395.312828,92.8388506 394.968778,93.1829013 C394.795974,93.3549266 394.570239,93.4413285 394.345283,93.4413285 C394.119549,93.4413285 393.893814,93.3549266 393.721789,93.1829013 Z" id="anger"></path>
        </g>
    </g>
</svg>