<?xml version="1.0" encoding="UTF-8"?>
<svg width="36px" height="42px" viewBox="0 0 36 42" version="1.1" xmlns="http://www.w3.org/2000/svg" xmlns:xlink="http://www.w3.org/1999/xlink">
    <!-- Generator: Sketch 47.1 (45422) - http://www.bohemiancoding.com/sketch -->
    <title>contempt</title>
    <desc>Created with Sketch.</desc>
    <defs></defs>
    <g id="Page-1" stroke="none" stroke-width="1" fill="none" fill-rule="evenodd">
        <g id="Artboard-Copy" transform="translate(-379.000000, -160.000000)" fill="#999999">
            <path d="M415,178 C415,185.679035 410.204203,192.398287 403.007006,194.940581 L403.007006,195.596004 C403.007006,198.908147 400.312143,201.602231 396.999222,201.602231 C393.687857,201.602231 390.992994,198.908147 390.992994,195.596004 L390.992994,194.940581 C383.796575,192.398287 379,185.679035 379,178 C379,168.074468 387.074468,160 396.999222,160 C406.924754,160 415,168.074468 415,178 Z M390.992994,188.443954 L390.992994,182.978723 C389.433057,182.641671 388.112091,182.245459 387.212247,181.940322 C387.555527,184.523871 388.924754,186.854437 390.992994,188.443954 Z M392.756876,195.596004 C392.756876,197.784899 394.428905,199.570576 396.55864,199.794759 L396.55864,183.649715 C395.23534,183.624805 393.949403,183.499481 392.756876,183.309549 L392.756876,195.596004 Z M397.440581,199.794759 C399.571095,199.570576 401.243124,197.784899 401.243124,195.596004 L401.243124,183.309549 C400.050597,183.499481 398.76466,183.624805 397.440581,183.649715 L397.440581,199.794759 Z M403.007006,182.978723 L403.007006,188.443954 C405.075246,186.854437 406.443695,184.523871 406.786975,181.940322 C405.88713,182.245459 404.566943,182.641671 403.007006,182.978723 Z M403.007006,193.069279 C409.172029,190.625843 413.236897,184.716917 413.236897,178 C413.236897,169.046705 405.953295,161.763103 396.999222,161.763103 C388.047483,161.763103 380.763103,169.046705 380.763103,178 C380.763103,184.716917 384.827971,190.625843 390.992994,193.069279 L390.992994,190.586923 C387.5096,188.483653 385.363518,184.724702 385.363518,180.645044 L385.363518,179.324079 L386.584069,179.830825 C386.633108,179.851064 391.623508,181.899844 396.999222,181.899844 C402.376492,181.899844 407.366113,179.851064 407.415153,179.830825 L408.635703,179.324079 L408.635703,180.645044 C408.635703,184.724702 406.4904,188.483653 403.007006,190.586923 L403.007006,193.069279 Z M390.315776,170.119357 C392.692268,170.119357 394.625065,172.052154 394.625065,174.428646 C394.625065,174.915931 394.231188,175.310586 393.743902,175.310586 C393.256617,175.310586 392.861962,174.915931 392.861962,174.428646 C392.861962,173.02439 391.719253,171.88246 390.315776,171.88246 C388.91152,171.88246 387.768812,173.02439 387.768812,174.428646 C387.768812,174.915931 387.374935,175.310586 386.887649,175.310586 C386.400363,175.310586 386.005708,174.915931 386.005708,174.428646 C386.005708,172.052154 387.939284,170.119357 390.315776,170.119357 Z M404.326414,170.119357 C406.702906,170.119357 408.636482,172.052154 408.636482,174.428646 C408.636482,174.915931 408.241827,175.310586 407.754541,175.310586 C407.267255,175.310586 406.873378,174.915931 406.873378,174.428646 C406.873378,173.02439 405.730669,171.88246 404.326414,171.88246 C402.922937,171.88246 401.780228,173.02439 401.780228,174.428646 C401.780228,174.915931 401.386352,175.310586 400.899066,175.310586 C400.411002,175.310586 400.017125,174.915931 400.017125,174.428646 C400.017125,172.052154 401.949922,170.119357 404.326414,170.119357 Z" id="contempt"></path>
        </g>
    </g>
</svg>