<?xml version="1.0" encoding="UTF-8"?>
<svg width="36px" height="43px" viewBox="0 0 36 43" version="1.1" xmlns="http://www.w3.org/2000/svg" xmlns:xlink="http://www.w3.org/1999/xlink">
    <!-- Generator: Sketch 47.1 (45422) - http://www.bohemiancoding.com/sketch -->
    <title>disgust</title>
    <desc>Created with Sketch.</desc>
    <defs></defs>
    <g id="Page-1" stroke="none" stroke-width="1" fill="none" fill-rule="evenodd">
        <g id="Artboard-Copy" transform="translate(-379.000000, -240.000000)" fill="#999999">
            <path d="M415,258.000389 C415,264.896192 411.027849,271.177063 404.841943,274.179334 L404.841943,278.515773 C404.841943,280.280395 403.405803,281.716534 401.639625,281.716534 C400.954637,281.716534 400.31791,281.500919 399.796385,281.13196 C399.249173,282.112738 398.200675,282.777487 397.000389,282.777487 C395.799325,282.777487 394.750049,282.112738 394.202837,281.13196 C393.680534,281.500919 393.045363,281.716534 392.360375,281.716534 C390.594197,281.716534 389.158057,280.280395 389.158057,278.515773 L389.158057,274.179334 C382.972151,271.177063 379,264.896192 379,258.000389 C379,248.075072 387.074293,240 397.000389,240 C406.924928,240 415,248.075072 415,258.000389 Z M403.078099,278.515773 L403.078099,266.776795 L390.921901,266.776795 L390.921901,278.515773 C390.921901,279.308958 391.567191,279.953469 392.360375,279.953469 C393.152782,279.953469 393.798071,279.308958 393.798071,278.515773 L395.561136,278.515773 L395.561136,279.575948 C395.561136,280.368354 396.207204,281.014422 397.000389,281.014422 C397.792796,281.014422 398.438085,280.368354 398.438085,279.575948 L398.438085,278.515773 L400.20115,278.515773 C400.20115,279.308958 400.84644,279.953469 401.639625,279.953469 C402.432809,279.953469 403.078099,279.308958 403.078099,278.515773 Z M404.841943,272.200653 C409.981686,269.35951 413.236935,263.930204 413.236935,258.000389 C413.236935,249.047288 405.953491,241.763844 397.000389,241.763844 C388.046509,241.763844 380.763065,249.047288 380.763065,258.000389 C380.763065,263.930204 384.018314,269.35951 389.158057,272.200653 L389.158057,265.012952 L404.841943,265.012952 L404.841943,272.200653 Z M388.535818,250.447971 C388.842506,250.068893 389.396723,250.008178 389.775801,250.314866 L395.200438,254.694896 L389.775801,259.074925 C389.613117,259.206474 389.416961,259.270303 389.223141,259.270303 C388.965492,259.270303 388.710957,259.158214 388.535818,258.94182 C388.230687,258.56352 388.289845,258.007746 388.668924,257.701836 L392.394323,254.694896 L388.668924,251.687176 C388.289845,251.382046 388.230687,250.826271 388.535818,250.447971 Z M405.902895,250.447971 C406.208026,250.826271 406.148868,251.382046 405.76979,251.687176 L402.04439,254.694896 L405.76979,257.701836 C406.148868,258.007746 406.208026,258.56352 405.902895,258.94182 C405.727756,259.158214 405.473221,259.270303 405.215572,259.270303 C405.021752,259.270303 404.825596,259.206474 404.662912,259.074925 L399.238275,254.694896 L404.662912,250.314866 C405.042768,250.008178 405.596207,250.068893 405.902895,250.447971 Z" id="disgust"></path>
        </g>
    </g>
</svg>