<?xml version="1.0" encoding="UTF-8"?>
<svg width="36px" height="36px" viewBox="0 0 36 36" version="1.1" xmlns="http://www.w3.org/2000/svg" xmlns:xlink="http://www.w3.org/1999/xlink">
    <!-- Generator: Sketch 47.1 (45422) - http://www.bohemiancoding.com/sketch -->
    <title>fear</title>
    <desc>Created with Sketch.</desc>
    <defs></defs>
    <g id="Page-1" stroke="none" stroke-width="1" fill="none" fill-rule="evenodd">
        <g id="Artboard-Copy" transform="translate(-379.000000, -316.000000)" fill="#999999">
            <path d="M397.000389,316 C387.074293,316 379,324.074293 379,333.998832 C379,343.92415 387.074293,351.999222 397.000389,351.999222 C406.924928,351.999222 415,343.92415 415,333.998832 C415,324.074293 406.924928,316 397.000389,316 Z M397.000389,350.236156 C388.046509,350.236156 380.763065,342.952712 380.763065,333.998832 C380.763065,325.046509 388.046509,317.763065 397.000389,317.763065 C405.953491,317.763065 413.236935,325.046509 413.236935,333.998832 C413.236935,342.952712 405.953491,350.236156 397.000389,350.236156 Z M405.441307,340.908647 L389.221886,340.908647 C388.73461,340.908647 388.340743,341.303293 388.340743,341.790568 C388.340743,342.277844 388.73461,342.67249 389.221886,342.67249 L405.441307,342.67249 C405.928582,342.67249 406.32245,342.277844 406.32245,341.790568 C406.32245,341.303293 405.928582,340.908647 405.441307,340.908647 Z M395.12757,329.512162 C395.12757,326.78233 392.906809,324.562347 390.176977,324.562347 C387.447923,324.562347 385.227162,326.78233 385.227162,329.512162 C385.227162,332.241216 387.447923,334.461978 390.176977,334.461978 C392.906809,334.461978 395.12757,332.241216 395.12757,329.512162 Z M386.109083,329.512162 C386.109083,327.268827 387.93442,325.444269 390.176977,325.444269 C392.42109,325.444269 394.245649,327.268827 394.245649,329.512162 C394.245649,331.754719 392.42109,333.580056 390.176977,333.580056 C387.93442,333.580056 386.109083,331.754719 386.109083,329.512162 Z M404.188091,324.562347 C401.459037,324.562347 399.238275,326.78233 399.238275,329.512162 C399.238275,332.241216 401.459037,334.461978 404.188091,334.461978 C406.917144,334.461978 409.137906,332.241216 409.137906,329.512162 C409.137906,326.78233 406.917144,324.562347 404.188091,324.562347 Z M400.120197,329.512162 C400.120197,327.268827 401.945534,325.444269 404.188091,325.444269 C406.430647,325.444269 408.255984,327.268827 408.255984,329.512162 C408.255984,331.754719 406.430647,333.580056 404.188091,333.580056 C401.945534,333.580056 400.120197,331.754719 400.120197,329.512162 Z M392.18835,329.600121 C392.18835,328.537612 391.327445,327.675928 390.264935,327.675928 C389.202426,327.675928 388.340743,328.537612 388.340743,329.600121 C388.340743,330.662631 389.202426,331.523536 390.264935,331.523536 C391.327445,331.523536 392.18835,330.662631 392.18835,329.600121 Z M404.275271,327.675928 C403.212761,327.675928 402.351856,328.537612 402.351856,329.600121 C402.351856,330.662631 403.212761,331.523536 404.275271,331.523536 C405.338559,331.523536 406.199464,330.662631 406.199464,329.600121 C406.199464,328.537612 405.338559,327.675928 404.275271,327.675928 Z" id="fear"></path>
        </g>
    </g>
</svg>