<?xml version="1.0" encoding="UTF-8"?>
<svg width="36px" height="36px" viewBox="0 0 36 36" version="1.1" xmlns="http://www.w3.org/2000/svg" xmlns:xlink="http://www.w3.org/1999/xlink">
    <!-- Generator: Sketch 47.1 (45422) - http://www.bohemiancoding.com/sketch -->
    <title>happiness</title>
    <desc>Created with Sketch.</desc>
    <defs></defs>
    <g id="Page-1" stroke="none" stroke-width="1" fill="none" fill-rule="evenodd">
        <g id="Artboard-Copy" transform="translate(-379.000000, -395.000000)" fill="#999999">
            <path d="M397.114894,395.209106 C406.881617,395.209106 414.826894,403.154383 414.826894,412.921106 C414.826894,422.68783 406.881617,430.633106 397.114894,430.633106 C387.34817,430.633106 379.402128,422.68783 379.402128,412.921106 C379.402128,403.154383 387.34817,395.209106 397.114894,395.209106 Z M397.114894,428.898213 C405.92417,428.898213 413.092,421.731149 413.092,412.921106 C413.092,404.11183 405.92417,396.944 397.114894,396.944 C388.304851,396.944 381.137021,404.11183 381.137021,412.921106 C381.137021,421.731149 388.304851,428.898213 397.114894,428.898213 Z M407.697362,412.053277 C408.176085,412.053277 408.564426,412.442383 408.564426,412.921106 C408.564426,419.234894 403.427915,424.371404 397.114894,424.371404 C390.801106,424.371404 385.664596,419.234894 385.664596,412.921106 C385.664596,412.442383 386.052936,412.053277 386.532426,412.053277 C387.011149,412.053277 387.399489,412.442383 387.399489,412.921106 C387.399489,418.278213 391.757787,422.636511 397.114894,422.636511 C402.471234,422.636511 406.829532,418.278213 406.829532,412.921106 C406.829532,412.442383 407.217872,412.053277 407.697362,412.053277 Z M390.366043,409.128851 C389.320511,409.128851 388.472596,408.280936 388.472596,407.235404 C388.472596,406.189872 389.320511,405.341957 390.366043,405.341957 C391.411574,405.341957 392.258723,406.189872 392.258723,407.235404 C392.258723,408.280936 391.411574,409.128851 390.366043,409.128851 Z M404.01234,409.128851 C402.966809,409.128851 402.118894,408.280936 402.118894,407.235404 C402.118894,406.189872 402.966809,405.341957 404.01234,405.341957 C405.057872,405.341957 405.905021,406.189872 405.905021,407.235404 C405.905021,408.280936 405.057872,409.128851 404.01234,409.128851 Z" id="happiness"></path>
        </g>
    </g>
</svg>