<?xml version="1.0" encoding="UTF-8"?>
<svg width="110px" height="68px" viewBox="0 0 110 68" version="1.1" xmlns="http://www.w3.org/2000/svg" xmlns:xlink="http://www.w3.org/1999/xlink">
    <!-- Generator: Sketch 47.1 (45422) - http://www.bohemiancoding.com/sketch -->
    <title>logo</title>
    <desc>Created with Sketch.</desc>
    <defs></defs>
    <g id="Page-1" stroke="none" stroke-width="1" fill="none" fill-rule="evenodd">
        <g id="Artboard" transform="translate(-20.000000, -20.000000)" fill="#FFFFFF">
            <g id="logo" transform="translate(20.000000, 20.000000)">
                <path d="M0,30 L110,30 L110,68 L0,68 L0,30 Z M19.0259342,66.0677966 C24.5057178,66.0677966 29.1566265,61.4708701 29.1566265,56.0546893 C29.1566265,52.9597288 27.5909741,50.092339 25.2424954,48.2262599 C26.5779048,46.5422373 27.4528283,44.4030734 27.4528283,42.0818531 C27.4528283,36.6201582 22.7558709,31.9322034 17.2300388,31.9322034 L1.98795181,31.9322034 L1.98795181,66.0677966 L19.0259342,66.0677966 Z M11.2650602,58.3389831 L11.2650602,52.5423729 L17.4811938,52.5423729 C19.0823191,52.5423729 20.5421687,53.8354628 20.5421687,55.440678 C20.5421687,57.0458931 19.176503,58.3389831 17.4811938,58.3389831 L11.2650602,58.3389831 Z M11.2650602,44.8135593 L11.2650602,39.0169492 L15.592997,39.0169492 C17.2330572,39.0169492 18.5542169,40.3100391 18.5542169,41.9152542 C18.5542169,43.5204694 17.2330572,44.8135593 15.592997,44.8135593 L11.2650602,44.8135593 Z M33.7951807,49.0455141 C33.7951807,58.4669379 41.478035,66.0677966 51.0010938,66.0677966 C60.5241527,66.0677966 68.253012,58.4669379 68.253012,49.0455141 C68.253012,39.6240904 60.5241527,31.9322034 51.0010938,31.9322034 C41.478035,31.9322034 33.7951807,39.6240904 33.7951807,49.0455141 Z M59.6385542,49 C59.6385542,53.4077265 55.9262259,57.0508475 51.3322196,57.0508475 C46.7846175,57.0508475 43.0722892,53.4077265 43.0722892,49 C43.0722892,44.5472967 46.7846175,40.9491525 51.3322196,40.9491525 C55.9262259,40.9491525 59.6385542,44.5472967 59.6385542,49 Z M95.8020197,31.9322034 L89.8121944,40.4433446 L83.7762935,31.9322034 L72.7181545,31.9322034 L84.2370493,48.271774 L71.5662651,66.0677966 L82.6244041,66.0677966 L89.8121944,56.0546893 L96.9539092,66.0677966 L108.012048,66.0677966 L95.3412639,48.271774 L106.860159,31.9322034 L95.8020197,31.9322034 Z" id="Combined-Shape"></path>
                <path d="M2.9369623,0.554628671 L0,0.554628671 L0,24.8013225 L6.53391613,24.8013225 L6.53391613,12.3870152 L13.0348327,18.1415639 L19.5027497,12.3546863 L19.5027497,24.8013225 L26.0366658,24.8013225 L26.0366658,0.554628671 L23.0997035,0.554628671 L13.0348327,9.54206984 L2.9369623,0.554628671 Z M30.5246082,12.7103045 C30.5246082,6.01821701 36.0355375,0.554628671 42.8664498,0.554628671 C49.6973621,0.554628671 55.2412909,6.01821701 55.2412909,12.7103045 C55.2412909,19.402392 49.6973621,24.8013225 42.8664498,24.8013225 C36.0355375,24.8013225 30.5246082,19.402392 30.5246082,12.7103045 Z M48.773374,12.6779756 C48.773374,9.47741199 46.1334079,6.89109799 42.8664498,6.89109799 C39.6324913,6.89109799 36.9925252,9.47741199 36.9925252,12.6779756 C36.9925252,15.8462102 39.6324913,18.4648532 42.8664498,18.4648532 C46.1334079,18.4648532 48.773374,15.8462102 48.773374,12.6779756 Z M58.7722456,12.7103045 C58.7722456,6.01821701 64.2831749,0.554628671 71.1140872,0.554628671 C77.9449995,0.554628671 83.4889284,6.01821701 83.4889284,12.7103045 C83.4889284,19.402392 77.9449995,24.8013225 71.1140872,24.8013225 C64.2831749,24.8013225 58.7722456,19.402392 58.7722456,12.7103045 Z M77.0210114,12.6779756 C77.0210114,9.47741199 74.3810453,6.89109799 71.1140872,6.89109799 C67.8801287,6.89109799 65.2401626,9.47741199 65.2401626,12.6779756 C65.2401626,15.8462102 67.8801287,18.4648532 71.1140872,18.4648532 C74.3810453,18.4648532 77.0210114,15.8462102 77.0210114,12.6779756 Z M88.0098703,24.8013225 L88.0098703,0.554628671 L97.1837526,0.554628671 C104.014665,0.554628671 109.558594,5.98588808 109.558594,12.6779756 C109.558594,19.3700631 104.014665,24.8013225 97.1837526,24.8013225 L88.0098703,24.8013225 Z M94.4777873,6.98808476 L94.4777873,18.4648532 L97.2167522,18.4648532 C100.450711,18.4648532 103.090677,15.8785392 103.090677,12.7103045 C103.090677,9.57439877 100.450711,6.98808476 97.2167522,6.98808476 L94.4777873,6.98808476 Z" id="Mood"></path>
            </g>
        </g>
    </g>
</svg>