<?xml version="1.0" encoding="UTF-8"?>
<svg width="36px" height="36px" viewBox="0 0 36 36" version="1.1" xmlns="http://www.w3.org/2000/svg" xmlns:xlink="http://www.w3.org/1999/xlink">
    <!-- Generator: Sketch 47.1 (45422) - http://www.bohemiancoding.com/sketch -->
    <title>Combined Shape</title>
    <desc>Created with Sketch.</desc>
    <defs></defs>
    <g id="Page-1" stroke="none" stroke-width="1" fill="none" fill-rule="evenodd">
        <g id="Artboard-Copy" transform="translate(-379.000000, -475.000000)" fill="#999999">
            <path d="M396.999611,475 C387.074293,475 379,483.074293 379,492.998832 C379,502.92415 387.074293,510.999222 396.999611,510.999222 C406.924928,510.999222 415,502.92415 415,492.998832 C415,483.074293 406.924928,475 396.999611,475 Z M396.999611,509.236156 C388.047288,509.236156 380.763065,501.952712 380.763065,492.998832 C380.763065,484.046509 388.047288,476.763065 396.999611,476.763065 C405.952712,476.763065 413.236935,484.046509 413.236935,492.998832 C413.236935,501.952712 405.952712,509.236156 396.999611,509.236156 Z M390.264935,485.119138 C389.202426,485.119138 388.340743,485.980821 388.340743,487.043331 C388.340743,488.10584 389.202426,488.967524 390.264935,488.967524 C391.327445,488.967524 392.18835,488.10584 392.18835,487.043331 C392.18835,485.980821 391.327445,485.119138 390.264935,485.119138 Z M403.497654,485.119138 C402.435145,485.119138 401.573461,485.980821 401.573461,487.043331 C401.573461,488.10584 402.435145,488.967524 403.497654,488.967524 C404.560163,488.967524 405.421069,488.10584 405.421069,487.043331 C405.421069,485.980821 404.560163,485.119138 403.497654,485.119138 Z" id="Combined-Shape"></path>
        </g>
    </g>
</svg>