<?xml version="1.0" encoding="UTF-8"?>
<svg width="36px" height="36px" viewBox="0 0 36 36" version="1.1" xmlns="http://www.w3.org/2000/svg" xmlns:xlink="http://www.w3.org/1999/xlink">
    <!-- Generator: Sketch 47.1 (45422) - http://www.bohemiancoding.com/sketch -->
    <title>sadness</title>
    <desc>Created with Sketch.</desc>
    <defs></defs>
    <g id="Page-1" stroke="none" stroke-width="1" fill="none" fill-rule="evenodd">
        <g id="Artboard-Copy" transform="translate(-379.000000, -561.000000)" fill="#999999">
            <path d="M397.000778,561 C387.075246,561 379,569.075246 379,579 C379,588.925532 387.075246,597.000778 397.000778,597.000778 C406.92631,597.000778 415,588.925532 415,579 C415,569.075246 406.92631,561 397.000778,561 Z M386.982615,572.673067 C387.550856,572.195122 388.274779,571.895433 389.07343,571.895433 C389.872081,571.895433 390.595226,572.195122 391.164245,572.673845 L391.164245,594.134665 C389.64712,593.547743 388.240529,592.743643 386.982615,591.753503 L386.982615,572.673067 Z M402.944733,572.673067 C403.512974,572.195122 404.236118,571.895433 405.035547,571.895433 C405.834198,571.895433 406.557343,572.195122 407.125584,572.673845 L407.125584,591.672548 C405.870784,592.677478 404.463415,593.494811 402.944733,594.094966 L402.944733,572.673067 Z M408.007525,590.902698 L408.007525,573.824338 C408.192008,574.233783 408.300986,574.684484 408.300986,575.162429 C408.300986,575.649715 408.695641,576.043591 409.182927,576.043591 C409.670213,576.043591 410.064089,575.649715 410.064089,575.162429 C410.064089,572.388947 407.808251,570.13233 405.035547,570.13233 C402.262065,570.13233 400.005449,572.388947 400.005449,575.162429 C400.005449,575.649715 400.400104,576.043591 400.88739,576.043591 C401.374676,576.043591 401.768552,575.649715 401.768552,575.162429 C401.768552,574.683705 401.87753,574.233005 402.062792,573.822782 L402.062792,594.418786 C400.467826,594.943435 398.769331,595.237675 397.000778,595.237675 C395.271925,595.237675 393.609237,594.96056 392.045407,594.458485 L392.045407,573.824338 C392.230669,574.233783 392.338869,574.684484 392.338869,575.162429 C392.338869,575.649715 392.733524,576.043591 393.22081,576.043591 C393.708095,576.043591 394.10275,575.649715 394.10275,575.162429 C394.10275,572.388947 391.846912,570.13233 389.07343,570.13233 C386.299948,570.13233 384.043332,572.388947 384.043332,575.162429 C384.043332,575.649715 384.437987,576.043591 384.925272,576.043591 C385.412558,576.043591 385.806435,575.649715 385.806435,575.162429 C385.806435,574.683705 385.916191,574.233005 386.101453,573.822782 L386.101453,591.000778 C382.831344,588.028801 380.763103,583.756876 380.763103,579 C380.763103,570.046705 388.047483,562.763103 397.000778,562.763103 C405.953295,562.763103 413.236897,570.046705 413.236897,579 C413.236897,583.703944 411.214582,587.934613 408.007525,590.902698 Z M397.042813,581.238713 C394.819668,581.238713 393.011417,583.046964 393.011417,585.269331 C393.011417,587.492475 394.819668,589.299948 397.042813,589.299948 C399.264401,589.299948 401.072652,587.492475 401.072652,585.269331 C401.072652,583.046964 399.264401,581.238713 397.042813,581.238713 Z M397.042813,587.977426 C395.54904,587.977426 394.333939,586.763103 394.333939,585.269331 C394.333939,583.776336 395.54904,582.561235 397.042813,582.561235 C398.535807,582.561235 399.75013,583.776336 399.75013,585.269331 C399.75013,586.763103 398.535807,587.977426 397.042813,587.977426 Z" id="sadness"></path>
        </g>
    </g>
</svg>