<?xml version="1.0" encoding="UTF-8"?>
<svg width="36px" height="36px" viewBox="0 0 36 36" version="1.1" xmlns="http://www.w3.org/2000/svg" xmlns:xlink="http://www.w3.org/1999/xlink">
    <!-- Generator: Sketch 47.1 (45422) - http://www.bohemiancoding.com/sketch -->
    <title>surprise</title>
    <desc>Created with Sketch.</desc>
    <defs></defs>
    <g id="Page-1" stroke="none" stroke-width="1" fill="none" fill-rule="evenodd">
        <g id="Artboard-Copy" transform="translate(-379.000000, -641.000000)" fill="#999999">
            <path d="M396.999611,641 C387.075072,641 379,649.074293 379,658.999611 C379,668.924928 387.075072,677 396.999611,677 C406.924928,677 415,668.924928 415,658.999611 C415,649.074293 406.924928,641 396.999611,641 Z M396.999611,675.236935 C388.047288,675.236935 380.763844,667.952712 380.763844,658.999611 C380.763844,650.047288 388.047288,642.763065 396.999611,642.763065 C405.952712,642.763065 413.236935,650.047288 413.236935,658.999611 C413.236935,667.952712 405.952712,675.236935 396.999611,675.236935 Z M396.999611,661.168998 C394.027698,661.168998 391.609224,663.586694 391.609224,666.559385 C391.609224,669.531298 394.027698,671.949772 396.999611,671.949772 C399.97308,671.949772 402.390776,669.531298 402.390776,666.559385 C402.390776,663.586694 399.97308,661.168998 396.999611,661.168998 Z M396.999611,670.186707 C394.999914,670.186707 393.372289,668.559082 393.372289,666.559385 C393.372289,664.558909 394.999914,662.932063 396.999611,662.932063 C399.000865,662.932063 400.627711,664.558909 400.627711,666.559385 C400.627711,668.559082 399.000865,670.186707 396.999611,670.186707 Z M390.947588,657.926204 C392.010098,657.926204 392.871781,657.06452 392.871781,656.002011 C392.871781,654.939501 392.010098,654.078596 390.947588,654.078596 C389.885079,654.078596 389.024173,654.939501 389.024173,656.002011 C389.024173,657.06452 389.885079,657.926204 390.947588,657.926204 Z M403.052412,654.078596 C401.989902,654.078596 401.128997,654.939501 401.128997,656.002011 C401.128997,657.06452 401.989902,657.926204 403.052412,657.926204 C404.114921,657.926204 404.976605,657.06452 404.976605,656.002011 C404.976605,654.939501 404.114921,654.078596 403.052412,654.078596 Z M407.046473,651.346498 C407.290111,651.768491 407.829208,651.912941 408.250527,651.669693 C408.673194,651.425666 408.81697,650.886958 408.573333,650.464965 C407.183897,648.058393 404.433701,646.86619 401.729859,647.49788 C401.255622,647.608996 400.961133,648.082818 401.071185,648.55677 C401.181731,649.033133 401.656797,649.325106 402.130749,649.215054 C404.042554,648.768305 406.064139,649.645044 407.046473,651.346498 Z M387.124918,651.346498 C388.107253,649.645044 390.128838,648.768305 392.040643,649.215054 C392.514595,649.325106 392.989661,649.033133 393.100206,648.55677 C393.210258,648.082818 392.91577,647.608996 392.441533,647.49788 C389.737691,646.86619 386.987494,648.058393 385.598059,650.464965 C385.354421,650.886958 385.498198,651.425666 385.920865,651.669693 C386.342184,651.912941 386.881281,651.768491 387.124918,651.346498 Z" id="surprise"></path>
        </g>
    </g>
</svg>